<?xml version="1.0" encoding="UTF-8" standalone="no"?>
<svg
   xmlns:dc="http://purl.org/dc/elements/1.1/"
   xmlns:cc="http://creativecommons.org/ns#"
   xmlns:rdf="http://www.w3.org/1999/02/22-rdf-syntax-ns#"
   xmlns:svg="http://www.w3.org/2000/svg"
   xmlns="http://www.w3.org/2000/svg"
   xmlns:sodipodi="http://sodipodi.sourceforge.net/DTD/sodipodi-0.dtd"
   xmlns:inkscape="http://www.inkscape.org/namespaces/inkscape"
   version="1.1"
   width="600px"
   height="600px"
   xlink="http://www.w3.org/1999/xlink"
   style="overflow:hidden!important;;opacity:1"
   id="svg184"
   sodipodi:docname="myAvatar.svg"
   inkscape:version="0.92.3 (2405546, 2018-03-11)">
  <sodipodi:namedview
     pagecolor="#ffffff"
     bordercolor="#666666"
     borderopacity="1"
     objecttolerance="10"
     gridtolerance="10"
     guidetolerance="10"
     inkscape:pageopacity="0"
     inkscape:pageshadow="2"
     inkscape:window-width="640"
     inkscape:window-height="480"
     id="namedview186"
     showgrid="false"
     inkscape:zoom="0.39333333"
     inkscape:cx="300"
     inkscape:cy="300"
     inkscape:window-x="0"
     inkscape:window-y="27"
     inkscape:window-maximized="0"
     inkscape:current-layer="svg184" />
  <metadata
     id="metadata188">
    <rdf:RDF>
      <cc:Work
         rdf:about="">
        <dc:format>image/svg+xml</dc:format>
        <dc:type
           rdf:resource="http://purl.org/dc/dcmitype/StillImage" />
      </cc:Work>
    </rdf:RDF>
  </metadata>
  <g
     transform="scale(3 3)"
     id="svga-group-wrapper">
    <g
       id="svga-group-backs-single" />
    <g
       transform="matrix(0.84999948 0 0 0.84999948 14.94602539974457 17.11658639398783)"
       id="svga-group-subwrapper">
      <g
         id="svga-group-hair-back">
        <path
           opacity="1"
           stroke-width="none"
           fill="#262626"
           d="M100.5,100.5h-1v-1h1V100.5z"
           id="SvgjsPath4043" />
      </g>
      <g
         id="svga-group-humanbody-single">
        <path
           stroke="none"
           opacity="1"
           stroke-width="none"
           fill="#d1d1d1"
           d="M195.417 199.778c-2.196-4.746-8.195-11.779-14.86-13.722 -8.239-2.403-26.837-5.308-33.733-6.923 -5.528-1.296-16.662-11.294-20.564-14.65 -0.7-0.6-1.273-1.839-1.287-2.76 -0.139-10.864 4.195-39.724 4.195-39.724H100 70.833c0 0 4.334 28.859 4.193 39.724 -0.011 0.921-0.587 2.16-1.285 2.76 -3.902 3.356-15.036 13.354-20.564 14.65 -6.897 1.615-25.495 4.619-33.733 7.022 -6.667 1.942-12.664 8.876-14.86 13.622 -3.708 8.008-4.584 22.5-4.584 35h100 100C200 222.278 199.123 207.786 195.417 199.778z"
           id="SvgjsPath2893" />
        <path
           stroke="none"
           opacity="1"
           stroke-width="none"
           fill="#eaeaea"
           d="M159.156 184.058c24.342 3.542 34.586 8.708 37.794 50.721H200c0-12.5-0.877-26.992-4.583-35 -2.196-4.746-8.195-11.779-14.86-13.722 -8.239-2.403-26.837-5.308-33.733-6.923 -5.528-1.296-18.242-12.069-21.643-16.35 3.36 4.704 12.791 15.605 21.054 18.46C150.188 182.61 153.48 183.232 159.156 184.058zM53.766 181.244c8.263-2.854 17.693-13.756 21.054-18.46 -3.4 4.28-16.114 15.054-21.643 16.35 -6.896 1.615-25.494 4.619-33.733 7.022 -6.665 1.942-12.664 8.876-14.86 13.622 -3.706 8.008-4.583 22.5-4.583 35h3.05c3.188-41.744 13.475-47.183 37.794-50.721C46.52 183.232 49.813 182.61 53.766 181.244z"
           id="SvgjsPath2894" />
        <path
           stroke="none"
           opacity="1"
           stroke-width="none"
           fill="#b9b9b9"
           d="M95.646 197.62c0 0-5.074-1.609-7.083-2.379 -10.449-4.009-44.395-6.607-44.395-6.607s35.754 1.419 43.644 2.779c-0.458-4.767-3.017-20.004-3.017-20.004s5.149 16.815 6.409 21.057C91.878 194.734 95.646 197.62 95.646 197.62zM106.445 196.278c-0.089 0.073-0.191 0.168-0.302 0.268C106.256 196.461 106.358 196.372 106.445 196.278zM95.646 197.62c0 0 2.893 2.992 4.347 3.03 1.91 0.051 4.828-2.899 6.151-4.104 -1.265 0.957-4.159 1.391-5.31 1.436C99.504 198.033 95.646 197.62 95.646 197.62zM116.664 190.101c-1.545 0.248-4.386 0.789-4.386 0.789l2.287-14.89c-0.646 3.071-4.474 16.211-8.12 20.278 1.91-1.616 6.158-2.391 8.324-2.704 10.236-1.484 10.232-1.483 41.062-4.94C155.831 188.634 126.76 188.479 116.664 190.101z"
           id="SvgjsPath2895" />
        <path
           opacity="1"
           stroke-width="1.5"
           stroke="#8c8c8c"
           fill="none"
           d="M195.417 199.778c-2.196-4.746-8.195-11.779-14.86-13.722 -8.239-2.403-26.837-5.308-33.733-6.923 -5.528-1.296-16.662-11.294-20.564-14.65 -0.7-0.6-1.273-1.839-1.287-2.76 -0.139-10.864 4.195-39.724 4.195-39.724H100 70.833c0 0 4.334 28.859 4.193 39.724 -0.011 0.921-0.587 2.16-1.285 2.76 -3.902 3.356-15.036 13.354-20.564 14.65 -6.897 1.615-25.495 4.619-33.733 7.022 -6.667 1.942-12.664 8.876-14.86 13.622 -3.708 8.008-4.584 22.5-4.584 35h100 100C200 222.278 199.123 207.786 195.417 199.778z"
           id="SvgjsPath2896" />
      </g>
      <g
         id="svga-group-chinshadow-single">
        <path
           opacity="1"
           fill="url(#SvgjsLinearGradient3149-884)"
           d="M109.536 170.861c4.446-1.662 9.623-5.664 14.692-10.57 0.134-7.874 1.927-22.141 3.129-30.907 -15.727-1.816-38.988-1.81-54.712 0.013 1.201 8.766 2.992 23.017 3.125 30.887 5.071 4.909 10.251 8.915 14.699 10.578C94.942 172.534 105.063 172.534 109.536 170.861z"
           id="SvgjsPath3148" />
      </g>
      <g
         id="svga-group-clothes-single">
        <path
           opacity="1"
           stroke-width="none"
           fill="#5f5f5f"
           d="M151.119 179.24c-1.169 17.511 0.778 37.348 0.778 37.348 -8.557-3.703-24.938-17.078-29.373-18.164 -4.474 2.39-7.042 2.32-8.15 2.601 -6.551 1.097-16.591 2.793-24.333-1.148 -2.057 0.038-4.301 0.78-6.503 2.433 -14.313 10.724-24.088 11.687-31.542 16.842 1.802-30.226-1.067-29.88-1.743-40.21 -1.313-0.494-1.503-0.686-2.198-1.931 -11.285 3.505-33.28 6.635-44.27 17.565 -9.797 9.743-12.963 25.098-11.355 39.018 60.296-0.651 154.574-1.435 215.17-0.838C208.484 188.103 184.687 187.925 151.119 179.24z"
           id="SvgjsPath4154" />
        <path
           opacity="1"
           stroke-width="none"
           fill="#4e4e4e"
           d="M122.058 200.77c-2.26-0.563-4.039-0.075-5.735-0.076 1.416-0.26 3.443-0.796 6.202-2.27 3.903 0.958 20.003 13.108 28.935 18.133C141.348 213.958 130.793 203.448 122.058 200.77zM93.658 201.305c-1.216-0.361-2.424-0.823-3.617-1.429 -2.057 0.038-4.301 0.78-6.503 2.433 -11.353 8.505-23.97 13.47-30.718 16.655C86.366 209.735 80.769 201.455 93.658 201.305z"
           id="SvgjsPath4155" />
        <path
           opacity="1"
           stroke-width="none"
           fill="#707070"
           d="M49.185 177.937c-35.389 10.12-53.816 14.299-56.599 55.654 -0.052 0.001-0.105 0.002-0.158 0.002 -0.609-5.283-0.528-10.772 0.34-16.083 1.416-8.686 4.938-16.889 11.016-22.935 10.99-10.931 32.985-14.061 44.27-17.565C48.092 177.08 49.149 177.871 49.185 177.937zM151.119 179.24c-0.009 0.138-0.216 0.975-0.224 1.111 27.9 8.159 54.292 10.078 56.23 52.399 0.155 0.001 0.317 0.003 0.473 0.004C208.484 188.103 182.822 184.752 151.119 179.24z"
           id="SvgjsPath4156" />
        <path
           opacity="1"
           stroke-width="none"
           fill="#313131"
           d="M208.188 233.074c0 0-30.844 0.408-51.32 0.528 -13.87 0.089-27.734 0.164-41.604 0.223 -89.418 0.32-93.853-0.081-123.482-0.081 0 0-0.512-2.865-0.628-5.683 -1.741-42.366 33.358-44.661 56.99-51.536 0.296-0.086 0.613 0.04 0.769 0.306 0.404 0.69 1.153 1.216 1.216 1.248 0.01 0.362 0.032 0.714 0.055 1.078 -0.876-0.331-1.002-0.491-1.999-1.523 -0.093-0.1-0.197-0.18-0.322-0.136 -2.094 0.759-4.597 1.094-6.8 1.789 4.908 7.375 4.512 8.756 11.027 16.468 0.009 0.097 0.075 1.446 0.087 2.015 -6.347-6.477-7.729-10.213-12.204-18.152 -18.695 5.934-36.75 6.94-45.03 29.829 -2.725 7.542-3.244 16.485-2.368 24.214 65.178-0.707 149.228-1.39 214.963-0.839 -0.768-42.858-23.644-46.791-47.574-51.378 -1.633 4.021-5.957 9.634-8.979 12.803 -0.022-0.649-0.043-1.313-0.055-1.962 1.651-2.145 6.289-8.719 7.391-11.192 -2.355-0.663-4.701-0.836-7.045-1.528 0-0.312 0-0.606 0-0.905C203.73 184.932 208.188 199.237 208.188 233.074zM122.621 198.697c-0.242-0.101-0.483-0.165-0.728-0.197 -2.59 0.632-3.484 1.342-7.833 2.2 -3.443 0.681-12.983 2.123-20.4 0.233 0.039 0.108 0 0 0 0 -1.128-0.623-2.23-0.805-3.57-0.773C98.597 204.991 116.228 201.534 122.621 198.697zM134.848 206.507c-0.298-0.211-0.584-0.419-0.869-0.641 -19.135 9.753-37.45 9.533-56.787 5.223 -1.223-0.318-2.434-0.674-3.635-1.047 -0.374 0.198-0.759 0.398-1.157 0.571C92.217 218.667 116.646 217.646 134.848 206.507z"
           id="SvgjsPath4157" />
        <path
           opacity="1"
           stroke-width="none"
           fill="#ffffff"
           d="M52.045 219.328c1.863-31.071-2.873-33.865-1.708-46.65 3.715-2.175 7.4-2.84 9.259-5.004 8.871-10.374 7.834-14.805 13.599-17.518 1.146 4.797 1.841 16.058 1.848 16.205 4.352 12.899 7.315 18.411 10.881 23.596 2.071 3.004 6.493 7.614 7.551 10.751 -2.126-1.067-5.81-1.07-9.892 1.774 -6.618 4.571-4.228 5.659-18.017 10.661C60.675 214.903 56.454 217.294 52.045 219.328zM150.818 192.144c-0.004-0.317 0.354-16.318 0.396-17.648 -7.095-2.599-14.646-22.281-24.338-23.615 -2.861 17.897 0.537 11.463-7.986 33.135 -2.105 5.354-2.9 7.377-3.289 16.253 0.218-0.057 0.595-0.158 0.614-0.158l0 0c2.938-0.774 3.918-1.239 5.703-1.721 0.912 0.188 2.43 0.969 2.712 1.193l-0.008-0.012c8.231 4.395 15.909 12.32 27.32 17.195C152.173 212.465 150.818 201.795 150.818 192.144z"
           id="SvgjsPath4158" />
        <path
           opacity="1"
           stroke-width="none"
           fill="#dbdbdb"
           d="M117.407 199.781c-0.363 0.104-0.75 0.211-1.192 0.328 -0.02 0-0.396 0.102-0.614 0.158 0.389-8.876 1.184-10.899 3.289-16.253 8.523-21.672 5.125-15.237 7.986-33.135 1.941 0.266 3.798 1.415 5.582 3.085 -1.227 9.5-3.84 17-7.646 25.567 4.461-2.522 9.298-5.611 13.672-8.026C129.391 179.69 120.304 187.877 117.407 199.781zM93.475 200.708c-1.059-3.137-5.48-7.747-7.551-10.751 -3.566-5.185-6.529-10.696-10.881-23.596 -0.007-0.147-0.702-11.408-1.848-16.205 -3.646 1.714-3.34 2.955-5.771 7.11 1.958 10.127 5.915 16.565 11.527 24.985 -4.784-3.154-11.462-8.545-18.071-11.847 11.134 8.348 19.139 19.045 26.653 30.108C89.972 199.77 92.066 200.003 93.475 200.708z"
           id="SvgjsPath4159" />
        <path
           opacity="1"
           stroke-width="none"
           fill="#aaaaaa"
           d="M86.015 189.896c-5.437-7.907-7.91-15.09-10.862-23.54 0 0-0.482-11.635-1.662-16.356 -5.941 2.726-5.056 6.065-13.979 16.499 -2.523 2.937-5.948 4.17-9.286 6.17 -0.856 9.399 1.783 16.584 1.95 25.104 0.238 6.276 0.213 14.08-0.253 21.732 4.45-2.042 8.725-4.477 13.68-6.258 13.805-5.006 11.434-6.111 18.043-10.674 4.265-2.973 8.018-2.779 10.014-1.64C92.757 197.76 88.146 192.987 86.015 189.896zM70.813 209.965c-8.755 3.447-6.354 1.844-18.373 8.736 3.358-23.819-1.74-34.836-1.74-45.571 3.458-1.789 6.78-2.763 9.33-5.682 9.546-10.978 7.557-13.666 12.843-16.896 0.331 3.15 0.595 6.323 0.761 9.506 0.563 11.263-0.939 3.57 3.492 15.177 6.549 17.153 12.799 18.935 15.762 24.862C84.479 196.433 78.493 207.405 70.813 209.965zM150.93 192.142c-0.006-0.438 0.389-17.628 0.397-17.721 -7.108-2.46-15.008-22.473-24.872-23.66 -0.834 5.126-1.819 16.224-1.819 16.224 -6.725 22.526-8.516 18.624-9.153 33.432 0.003 0 0.713-0.197 0.76-0.2 2.804-0.74 3.87-1.207 5.651-1.716 0.281 0.055 0.739 0.195 1.013 0.316 0.038 0.02 1.7 0.839 1.664 0.851 8.283 4.426 15.938 12.374 27.474 17.26C152.314 212.718 150.93 201.899 150.93 192.142zM144.088 211.398c-7.721-4.629-13.066-10.239-21.258-13.583 -2.219-0.936-5.073 0.968-7.025 2.402 1.077-9.418 0.707-7.281 2.708-12.69 9.219-25.037 6.64-10.866 8.801-36.229 8.454 2.822 16.191 20.952 23.12 23.187 -2.226 26.343 0.761 35.685 1.113 41.66C148.972 214.759 146.59 212.896 144.088 211.398z"
           id="SvgjsPath4160" />
      </g>
      <g
         id="svga-group-head">
        <g
           id="svga-group-ears-left">
          <path
             opacity="1"
             stroke-width="1.5"
             stroke="#8c8c8c"
             fill="#d1d1d1"
             d="M47.218 81.505c-0.967-2.487-8.082-6.002-11.21-5.447 -3.538 0.627-4.838 4.356-4.369 7.119 1.103 6.487 3.996 9.219 5.296 14.286 1.096 4.273 3.433 6.732 4.588 8.548 1.42 2.228 2.73 7.341 3.023 8.087 0.463 1.18 2.103 4.043 5.002 3.896 3.333-0.172 7.545-6.688 7.614-8.135C57.544 102.009 49.733 87.979 47.218 81.505z"
             id="SvgjsPath3213" />
          <path
             opacity="1"
             stroke-width="none"
             fill="#8c8c8c"
             d="M47.953 107.96c0 0 0.429-1.071-0.094-2.022 -0.672-1.223-2.423-3.468-2.821-4.811 -0.325-1.098-0.16-3.445-0.213-4.593 -0.094-2.03-1.492-3.42-1.927-4.585 -2.914-7.793-6.792-12.623-9-13.626 -1.633 3.989-0.339 6.907 1.94 13.045 -1.375-8.342-0.054-10.95-0.054-10.95s4.018 3.465 6.001 11.172c0.359 1.391-1.111 4.294-0.83 5.705 0.352 1.772 4.184 5.201 5.257 6.635C47.049 105.047 47.953 107.96 47.953 107.96z"
             id="SvgjsPath3214" />
        </g>
        <g
           id="svga-group-ears-right">
          <path
             opacity="1"
             stroke-width="1.5"
             stroke="#8c8c8c"
             fill="#d1d1d1"
             d="M152.52 81.505c0.967-2.487 8.082-6.002 11.211-5.447 3.539 0.627 4.838 4.356 4.369 7.119 -1.104 6.487-3.996 9.219-5.297 14.286 -1.096 4.273-3.434 6.732-4.588 8.548 -1.42 2.228-2.73 7.341-3.023 8.087 -0.463 1.18-2.104 4.043-5.002 3.896 -3.332-0.172-7.545-6.688-7.613-8.135C142.193 102.009 150.006 87.979 152.52 81.505z"
             id="SvgjsPath3215" />
          <path
             opacity="1"
             stroke-width="none"
             fill="#8c8c8c"
             d="M151.785 107.96c0 0-0.43-1.071 0.094-2.022 0.672-1.223 2.424-3.468 2.82-4.811 0.324-1.098 0.16-3.445 0.215-4.593 0.094-2.03 1.49-3.42 1.926-4.585 2.914-7.793 6.793-12.623 9-13.626 1.633 3.989 0.338 6.907-1.939 13.045 1.375-8.342 0.053-10.95 0.053-10.95s-4.018 3.465-6.002 11.172c-0.357 1.391 1.111 4.294 0.83 5.705 -0.352 1.772-4.184 5.201-5.256 6.635C152.689 105.047 151.785 107.96 151.785 107.96z"
             id="SvgjsPath3216" />
        </g>
        <g
           id="svga-group-faceshape-wrap">
          <g
             id="svga-group-faceshape-single">
            <path
               stroke="none"
               opacity="1"
               stroke-width="none"
               fill="#d1d1d1"
               d="M144.004 126.306c-6.87 10.846-23.072 30.329-34.468 34.563 -4.474 1.663-14.594 1.663-19.067 0 -11.396-4.235-27.596-23.719-34.467-34.563 -6.753-10.657-14.852-48.287-14.863-48.341 -1.3-4.961-1.996-10.168-2.004-15.538C39.082 28.614 66.289 1.169 99.907 1.116c33.621-0.053 60.913 27.306 60.963 61.119 0.009 5.37-0.669 10.579-1.952 15.544C158.901 77.832 150.78 115.606 144.004 126.306z"
               id="SvgjsPath3145" />
            <path
               stroke="none"
               opacity="1"
               stroke-width="none"
               fill="#c4c4c4"
               d="M110.152 1.978c26.994 6.303 47.097 30.644 47.052 59.708 -0.009 5.369-0.704 10.577-2.004 15.537 -0.012 0.054-7.377 37.684-14.13 48.341 -6.872 10.844-22.339 29.588-33.734 33.823 -1.476 0.549-5.027 1.103-7.334 1.103 -2.307 0-5.857-0.554-7.333-1.103 -11.396-4.235-26.863-22.979-33.734-33.823 -6.753-10.657-14.119-48.287-14.13-48.341 -1.3-4.96-1.996-10.168-2.004-15.537C42.756 32.622 62.857 8.281 89.853 1.978 61.03 6.845 39.087 32.061 39.134 62.427c0.008 5.369 0.704 10.576 2.004 15.538 0.012 0.054 8.11 37.684 14.863 48.341 6.871 10.845 23.072 30.328 34.467 34.563 2.239 0.833 5.889 1.247 9.537 1.244 3.646 0.001 7.292-0.411 9.53-1.244 11.396-4.235 27.596-23.719 34.468-34.563 6.753-10.657 14.852-48.287 14.862-48.341 1.3-4.961 1.996-10.168 2.004-15.538C160.918 32.061 138.975 6.845 110.152 1.978z"
               id="SvgjsPath3146" />
            <path
               opacity="1"
               stroke-width="1.5"
               stroke="#8c8c8c"
               fill="none"
               d="M144.004 126.306c-6.87 10.846-23.072 30.329-34.468 34.563 -4.474 1.663-14.594 1.663-19.067 0 -11.396-4.235-27.596-23.719-34.467-34.563 -6.753-10.657-14.852-48.287-14.863-48.341 -1.3-4.961-1.996-10.168-2.004-15.538C39.082 28.614 66.289 1.169 99.907 1.116c33.621-0.053 60.913 27.306 60.963 61.119 0.009 5.37-0.669 10.579-1.952 15.544C158.901 77.832 150.78 115.606 144.004 126.306z"
               id="SvgjsPath3147" />
          </g>
        </g>
        <g
           id="svga-group-mouth-single">
          <path
             opacity="1"
             fill="url(#SvgjsLinearGradient3182-801)"
             d="M100.389 141.808c-3.458 0-4.907-2.678-4.907-2.678l9.74-0.188C105.222 138.941 103.433 141.808 100.389 141.808z"
             id="SvgjsPath3181" />
          <path
             opacity="1"
             stroke-width="none"
             fill="#8c8c8c"
             d="M98.82 139.206c-1.781 0-3.136-0.171-3.231-0.184 -0.146-0.02-0.248-0.146-0.228-0.282 0.02-0.138 0.157-0.227 0.301-0.214 0.04 0.006 6.084 0.5 9.357-0.195 0.156-0.03 0.289 0.057 0.321 0.189 0.031 0.135-0.06 0.269-0.202 0.299C103.729 139.118 100.096 139.206 98.82 139.206zM84.391 133.824c-0.365-0.663 4.097 0.111 6.79-0.551 2.98-0.732 6.101 0.208 9.133 0.479 2.382 0.213 4.838-0.975 7.191-0.436 3.261 0.747 8.236-0.196 7.843 0.594 -0.273 0.548-4.893 1.05-7.524 0.604 -2.301-0.39-4.683 0.556-7.006 0.73 -2.885 0.217-5.767-1.385-8.614-0.933C88.922 134.832 84.701 134.388 84.391 133.824z"
             id="SvgjsPath3185" />
        </g>
        <g
           id="svga-group-eyes-left">
          <g
             id="svga-group-eyesback-left">
            <path
               opacity="1"
               fill="url(#SvgjsRadialGradient3774-311)"
               d="M83.071 89.125c-3.293-0.784-4.969 1.059-9.809 1.166 -8.057 0.177-9.938-0.618-11.199-2.638 -0.523-0.837-1.023-1.928-1.264-2.601l-0.1-4.149c1.328-3.949 19.541-4.352 25.9 1.784 0.287 0.666 0.433 1.287 0.465 1.867 -0.19 0.958-0.512 1.878-0.947 2.749C85.411 88.113 84.355 88.729 83.071 89.125z"
               id="SvgjsPath3773" />
          </g>
          <g
             transform="translate(0.25 0.25)"
             id="svga-group-eyesiriswrapper-left">
            <g
               id="svga-group-eyesiriscontrol-left">
              <g
                 id="svga-group-eyesiris-left">
                <path
                   opacity="1"
                   stroke-width="0.5"
                   stroke="#2c2c2c"
                   fill="#626262"
                   d="M79.788 85.588c-0.869 3.192-4.162 5.073-7.361 4.196 -3.197-0.876-5.084-4.178-4.214-7.371 0.869-3.195 4.168-5.076 7.365-4.198C78.772 79.09 80.659 82.392 79.788 85.588z"
                   id="SvgjsPath3955" />
                <path
                   opacity="1"
                   stroke-width="none"
                   fill="#797979"
                   d="M78.855 85.662c-0.849 2.452-3.407 3.881-5.899 3.199 -2.3-0.631-3.752-2.838-3.563-5.171 0.853-0.067 1.787-0.087 2.756-0.04 -0.01 0.033-0.027 0.062-0.036 0.096 -0.306 1.125 0.407 2.305 1.592 2.63 1.189 0.326 2.401-0.326 2.707-1.451 0.039-0.147 0.06-0.294 0.065-0.439C77.29 84.782 78.088 85.165 78.855 85.662z"
                   id="SvgjsPath3956" />
                <path
                   opacity="0.9"
                   stroke-width="none"
                   fill="#000000"
                   d="M74.813 82.21c-1.203-0.344-2.429 0.342-2.739 1.54 -0.311 1.191 0.412 2.438 1.614 2.783 1.204 0.345 2.43-0.342 2.741-1.534C76.742 83.801 76.016 82.555 74.813 82.21zM75.075 86.442c-0.5 0.156-1.017-0.051-1.154-0.462 -0.133-0.411 0.163-0.867 0.667-1.019 0.503-0.156 1.019 0.051 1.157 0.459C75.881 85.831 75.582 86.287 75.075 86.442z"
                   id="SvgjsPath3957" />
                <path
                   opacity="0.6"
                   stroke-width="none"
                   fill="#ffffff"
                   d="M70.811 87.159c-0.37 0.222-0.922 0.023-1.238-0.447 -0.316-0.466-0.269-1.024 0.102-1.247 0.368-0.219 0.925-0.021 1.239 0.446C71.226 86.378 71.181 86.938 70.811 87.159z"
                   id="SvgjsPath3958" />
                <path
                   opacity="0.8"
                   stroke-width="none"
                   fill="#ffffff"
                   d="M78.71 83.74c-0.846 0.507-2.117 0.051-2.837-1.02 -0.72-1.072-0.612-2.352 0.234-2.857 0.844-0.509 2.118-0.053 2.834 1.019C79.66 81.954 79.556 83.232 78.71 83.74z"
                   id="SvgjsPath3959" />
              </g>
            </g>
          </g>
          <g
             id="svga-group-eyesfront-left">
            <path
               opacity="1"
               stroke-width="none"
               fill="#d1d1d1"
               d="M53.729 84.098c-0.382 3.304 9.854 22.004 20.071 22.004s19.5-5.292 19.5-22.003c0-17.789-9.283-22.001-19.5-22.001S55.626 67.704 53.729 84.098zM60.8 85.053l-0.1-4.149c1.328-3.949 19.541-4.352 25.9 1.784 1.396 3.231-0.409 5.477-3.529 6.438 -3.293-0.784-4.969 1.059-9.809 1.166 -8.057 0.177-9.938-0.618-11.199-2.638C61.54 86.816 61.04 85.726 60.8 85.053z"
               id="SvgjsPath3798" />
            <path
               opacity="1"
               fill="url(#SvgjsRadialGradient3800-966)"
               d="M59.698 82.412c0.023 7.534 7.646 13.604 17.038 13.566 9.389-0.043 16.985-6.179 16.961-13.713 -0.023-7.533-7.647-13.605-17.04-13.566C67.265 68.743 59.673 74.878 59.698 82.412zM60.8 85.053l-0.1-4.149c1.328-3.949 19.541-4.352 25.9 1.784 1.396 3.231-0.409 5.477-3.529 6.438 -3.293-0.784-4.969 1.059-9.809 1.166 -8.057 0.177-9.938-0.618-11.199-2.638C61.54 86.816 61.04 85.726 60.8 85.053z"
               id="SvgjsPath3799" />
            <path
               opacity="1"
               fill="url(#SvgjsRadialGradient3805-175)"
               d="M62.063 87.654c-0.523-0.837-1.023-1.928-1.264-2.601l-0.1-4.149c1.328-3.949 19.541-4.352 25.9 1.784 1.396 3.231-0.409 5.477-3.529 6.438 -3.293-0.784-4.969 1.059-9.809 1.166C65.206 90.469 63.324 89.673 62.063 87.654z"
               id="SvgjsPath3804" />
            <path
               opacity="1"
               stroke-width="none"
               fill="#8c8c8c"
               d="M89.465 81.193c-9.617-5.761-16.701-6.128-28.117-5.394C70.877 74.298 81.852 75.387 89.465 81.193z"
               id="SvgjsPath3808" />
            <path
               opacity="1"
               stroke-width="none"
               fill="#000000"
               d="M88.23 85.283c-3.24-8.315-25.943-8.364-27.431-4.181v3.895c-1.021-1.539-1.047-1.633-1.483-3.404l-2.195 0.746c0 0 2.746-3.873 5.299-4.381C84.606 73.539 88.04 83.949 88.23 85.283zM84.743 89.42c-4.625-1.98-5.94 0.378-11.563 0.495 -8.004 0.168-9.567-0.766-11.125-2.476 0.813 2.091 1.375 3.085 10.875 3.027C78.306 90.433 81.243 88.212 84.743 89.42z"
               id="SvgjsPath3809" />
          </g>
        </g>
        <g
           id="svga-group-eyes-right">
          <g
             id="svga-group-eyesback-right">
            <path
               opacity="1"
               fill="url(#SvgjsRadialGradient3782-113)"
               d="M116.529 89.125c3.293-0.784 4.969 1.059 9.809 1.166 8.057 0.177 9.938-0.618 11.199-2.638 0.523-0.837 1.023-1.928 1.264-2.601l0.1-4.149c-1.328-3.949-19.541-4.352-25.9 1.784 -0.287 0.666-0.433 1.287-0.465 1.867 0.19 0.958 0.512 1.878 0.947 2.749C114.189 88.113 115.245 88.729 116.529 89.125z"
               id="SvgjsPath3781" />
          </g>
          <g
             transform="translate(-0.25 0.25)"
             id="svga-group-eyesiriswrapper-right">
            <g
               id="svga-group-eyesiriscontrol-right">
              <g
                 id="svga-group-eyesiris-right">
                <path
                   opacity="1"
                   stroke-width="0.5"
                   stroke="#2c2c2c"
                   fill="#626262"
                   d="M131.788 85.588c-0.869 3.192-4.162 5.073-7.362 4.196 -3.196-0.876-5.084-4.178-4.214-7.371 0.869-3.195 4.169-5.076 7.365-4.198C130.772 79.09 132.658 82.392 131.788 85.588z"
                   id="SvgjsPath3960" />
                <path
                   opacity="1"
                   stroke-width="none"
                   fill="#797979"
                   d="M130.855 85.662c-0.849 2.452-3.408 3.881-5.899 3.199 -2.3-0.631-3.753-2.838-3.563-5.171 0.854-0.067 1.787-0.087 2.756-0.04 -0.01 0.033-0.027 0.062-0.036 0.096 -0.306 1.125 0.407 2.305 1.593 2.63 1.189 0.326 2.401-0.326 2.707-1.451 0.038-0.147 0.06-0.294 0.065-0.439C129.29 84.782 130.089 85.165 130.855 85.662z"
                   id="SvgjsPath3961" />
                <path
                   opacity="0.9"
                   stroke-width="none"
                   fill="#000000"
                   d="M126.813 82.21c-1.202-0.344-2.429 0.342-2.738 1.54 -0.312 1.191 0.412 2.438 1.613 2.783 1.204 0.345 2.431-0.342 2.742-1.534C128.741 83.801 128.016 82.555 126.813 82.21zM127.075 86.442c-0.5 0.156-1.018-0.051-1.154-0.462 -0.133-0.411 0.163-0.867 0.667-1.019 0.503-0.156 1.019 0.051 1.157 0.459C127.881 85.831 127.582 86.287 127.075 86.442z"
                   id="SvgjsPath3962" />
                <path
                   opacity="0.6"
                   stroke-width="none"
                   fill="#ffffff"
                   d="M122.812 87.159c-0.37 0.222-0.923 0.023-1.238-0.447 -0.316-0.466-0.27-1.024 0.102-1.247 0.367-0.219 0.926-0.021 1.239 0.446C123.227 86.378 123.181 86.938 122.812 87.159z"
                   id="SvgjsPath3963" />
                <path
                   opacity="0.8"
                   stroke-width="none"
                   fill="#ffffff"
                   d="M130.71 83.74c-0.846 0.507-2.116 0.051-2.837-1.02 -0.72-1.072-0.612-2.352 0.234-2.857 0.845-0.509 2.117-0.053 2.834 1.019C131.66 81.954 131.557 83.232 130.71 83.74z"
                   id="SvgjsPath3964" />
              </g>
            </g>
          </g>
          <g
             id="svga-group-eyesfront-right">
            <path
               opacity="1"
               stroke-width="none"
               fill="#d1d1d1"
               d="M125.801 62.098c-10.217 0-19.5 4.212-19.5 22.001 0 16.711 9.283 22.003 19.5 22.003s19.891-18.032 20.07-22.004C146.617 67.611 136.018 62.098 125.801 62.098zM137.537 87.654c-1.261 2.02-3.143 2.815-11.199 2.638 -4.84-0.107-6.516-1.95-9.809-1.166 -3.12-0.961-4.925-3.207-3.529-6.438 6.359-6.136 24.572-5.733 25.9-1.784l-0.1 4.149C138.561 85.726 138.061 86.816 137.537 87.654z"
               id="SvgjsPath3819" />
            <path
               opacity="1"
               fill="url(#SvgjsRadialGradient3821-930)"
               d="M122.943 68.699c-9.393-0.04-17.016 6.033-17.039 13.566 -0.025 7.535 7.572 13.67 16.961 13.713 9.391 0.037 17.014-6.033 17.037-13.566C139.928 74.878 132.336 68.743 122.943 68.699zM137.537 87.654c-1.261 2.02-3.143 2.815-11.199 2.638 -4.84-0.107-6.516-1.95-9.809-1.166 -3.12-0.961-4.925-3.207-3.529-6.438 6.359-6.136 24.572-5.733 25.9-1.784l-0.1 4.149C138.561 85.726 138.061 86.816 137.537 87.654z"
               id="SvgjsPath3820" />
            <path
               opacity="1"
               fill="url(#SvgjsRadialGradient3826-762)"
               d="M137.537 87.654c0.523-0.837 1.023-1.928 1.264-2.601l0.1-4.149c-1.328-3.949-19.541-4.352-25.9 1.784 -1.396 3.231 0.409 5.477 3.529 6.438 3.293-0.784 4.969 1.059 9.809 1.166C134.395 90.469 136.276 89.673 137.537 87.654z"
               id="SvgjsPath3825" />
            <path
               opacity="1"
               stroke-width="none"
               fill="#8c8c8c"
               d="M110.136 81.193c9.617-5.761 16.701-6.128 28.117-5.394C128.724 74.298 117.749 75.387 110.136 81.193z"
               id="SvgjsPath3829" />
            <path
               opacity="1"
               stroke-width="none"
               fill="#000000"
               d="M137.181 77.957c2.553 0.508 5.299 4.381 5.299 4.381l-2.195-0.746c-0.437 1.771-0.463 1.865-1.483 3.404v-3.895c-1.487-4.183-24.19-4.134-27.431 4.181C111.561 83.949 114.994 73.539 137.181 77.957zM126.67 90.467c9.5 0.058 10.063-0.937 10.875-3.027 -1.558 1.71-3.121 2.644-11.125 2.476 -5.622-0.117-6.938-2.476-11.563-0.495C118.357 88.212 121.295 90.433 126.67 90.467z"
               id="SvgjsPath3830" />
          </g>
        </g>
        <g
           id="svga-group-facehighlight-single">
          <path
             opacity="1"
             fill="url(#SvgjsRadialGradient2886-145)"
             d="M141 113.974c0.035 22.622-18.292 40.994-40.938 41.025 -22.642 0.037-41.028-18.273-41.063-40.9 -0.035-22.62 18.292-41.064 40.937-41.1C122.579 72.964 140.967 91.349 141 113.974z"
             id="SvgjsPath2885" />
          <path
             opacity="1"
             fill="url(#SvgjsRadialGradient2890-451)"
             d="M137.5 53.999c0 20.711-16.789 37.5-37.499 37.5 -20.711 0-37.501-16.789-37.501-37.5s16.79-37.5 37.501-37.5C120.711 16.499 137.5 33.288 137.5 53.999z"
             id="SvgjsPath2889" />
        </g>
        <g
           id="svga-group-eyebrows-left">
          <path
             opacity="1"
             stroke-width="none"
             fill="#262626"
             d="M53.149 74.996c9.743-15.115 36.491 5.148 38.018-1.191 0.299-1.271-0.407-2.015-1.564-2.492C75.982 65.807 57.955 61.18 53.149 74.996z"
             id="SvgjsPath3991" />
        </g>
        <g
           id="svga-group-eyebrows-right">
          <path
             opacity="1"
             stroke-width="none"
             fill="#262626"
             d="M146.851 74.996c-9.743-15.115-36.491 5.148-38.018-1.191 -0.299-1.271 0.407-2.015 1.564-2.492C124.018 65.807 142.045 61.18 146.851 74.996z"
             id="SvgjsPath3992" />
        </g>
        <g
           id="svga-group-nose-single">
          <path
             opacity="1"
             stroke-width="none"
             fill="#8c8c8c"
             d="M105.07 117.886c1.053 0 1.338 0.28 1.338 0.625 0 0.347-0.328 0.879-1.338 0.624 -1.109-0.276-3.046-0.148-3.046-0.148S104.018 117.886 105.07 117.886zM95.017 117.886c-1.054 0.001-1.337 0.282-1.337 0.628 -0.001 0.345 0.317 0.842 1.337 0.624 1.125-0.241 3.046-0.149 3.046-0.149S96.071 117.89 95.017 117.886zM108.609 114.148c0 0 1.458 1.654 1.154 3.403 -0.294 1.699-3.238 2.447-3.238 2.447s2.044-1.297 2.292-2.873C108.933 116.39 108.609 114.148 108.609 114.148zM90.617 112.446c0 0-1.063 2.316-0.755 3.727 0.558 2.547 3.625 3.565 3.625 3.565s-1.914-1.747-2.594-3.291C90.149 114.763 90.617 112.446 90.617 112.446z"
             id="SvgjsPath3203" />
          <path
             opacity="1"
             stroke-width="none"
             fill="#eaeaea"
             d="M105.019 115.38c1.021-0.761 1.124-1.195 0.912-1.479 -0.21-0.284-0.823-0.464-1.678 0.453 -0.942 1.012-2.991 1.758-2.991 1.758S103.997 116.143 105.019 115.38z"
             id="SvgjsPath3204" />
        </g>
        <g
           id="svga-group-beardwrap">
          <g
             id="svga-group-beard-single">
            <path
               opacity="1"
               stroke-width="none"
               fill="#262626"
               d="M100,18.13L100,18.13L100,18.13L100,18.13z"
               id="SvgjsPath4084" />
          </g>
        </g>
        <g
           id="svga-group-mustache-single">
          <path
             opacity="1"
             stroke-width="none"
             fill="#262626"
             d="M100,18.13L100,18.13L100,18.13L100,18.13z"
             id="SvgjsPath4089" />
        </g>
        <g
           id="svga-group-hair-front">
          <path
             opacity="1"
             stroke-width="none"
             fill="#262626"
             d="M45.777 90.313c-2.998-2.502-6.749-8.939-8.423-17.962 -0.356-1.849-0.61-3.75-0.88-5.763 -1.131-8.446-3.555-18.289-1.878-28.373 2.013-12.337 11.271-25.693 23.036-33.237 18.191-11.772 64.171-17.033 73.754-1.537 5.559-0.203 11.557 1.249 15.699 4.471 13.709 10.284 19.01 45.211 15.211 62.559 -2.528 11.847-3.191 14.954-8.264 19.599 1.812-54.323-0.99-39.665-3.306-54.253 -2.715-1.99-3.727-1.168-7.909-3.542 -8.318-6.142-7.915-8.602-11.683-12.898 -3.356 3.969-8.181 7.463-11.907 9.077 0.944-1.547 1.749-3.282 2.282-4.398l-0.446-0.373c-3.129 2.262-9.451 5.478-13.336 5.823 2.087-2.565 1.843-2.242 2.677-3.805 -3.116 1.916-6.427 3.217-10.604 3.583 3.935-1.944 5.699-3.274 8.751-5.817l-0.279-0.518c-21.191 6.437-26.218 7.895-41.755 10.651 -13.012 1.627-8.248 0.252-12.968 0.252 -7.593 0-8.798 22.789-8.47 30.387C45.925 85.479 44.837 81.343 45.777 90.313z"
             id="SvgjsPath4045" />
          <path
             opacity="1"
             stroke-width="none"
             fill="#171717"
             d="M162.296 70.471c-2.528 11.847-3.191 14.954-8.264 19.599 1.812-54.323-0.99-39.665-3.306-54.253 -2.715-1.99-3.727-1.168-7.909-3.542 -8.318-6.142-7.915-8.602-11.683-12.898 -3.356 3.969-8.181 7.463-11.907 9.077 0.944-1.547 1.749-3.282 2.282-4.398l-0.446-0.373c-3.129 2.262-9.451 5.478-13.336 5.823 2.087-2.565 1.843-2.242 2.677-3.805 -3.116 1.916-6.427 3.217-10.604 3.583 3.935-1.944 5.699-3.274 8.751-5.817l-0.279-0.518c-21.191 6.437-26.218 7.895-41.755 10.651 -13.012 1.627-8.248 0.252-12.968 0.252 -7.593 0-8.798 22.789-8.47 30.387 0.846 21.241-0.242 17.104 0.698 26.075 -2.998-2.502-6.749-8.939-8.423-17.962 -0.356-1.849-0.61-3.75-0.88-5.763 -1.131-8.446-3.555-18.289-1.878-28.373 1.59-9.746 13.727-24.08 22.024-31.729 -25.5 23.75-18 50.252-13.75 71.5C41.619 59.235 38 29 55 28c23 0 48.869-3.265 64.869-19.265C118.869 15.735 118 17 113 22c4-3 9-5 11-10 -1 4-1 7-4 10 3-2 6-5 9-8 0 3-2 6-3 9 2-5 8-8 9-13 -3 13 12.369 19.985 17.119 22.735 6.5 9 6.75 28 5.25 43.75 5.5-18 3-48.75-13.25-70C161.869 19.485 165.6 55.386 162.296 70.471zM60.369 19.985c12.207-0.359 21.165-2.337 34.25-9.75C82.032 15.751 74.067 18.383 60.369 19.985zM93.619 15.735c6.46-2.681 10.955-8.497 18.25-10.25C105.146 7.818 100.471 13.67 93.619 15.735zM54.869 19.485c4.629-8.324 14.52-15.222 27-16.25C71.713 5.123 60.837 10.953 54.869 19.485z"
             id="SvgjsPath4046" />
          <path
             opacity="1"
             stroke-width="none"
             fill="#373737"
             d="M86.619 0c13.085-5.594 24.996-5.023 37.5 1.985 -13.123-5.605-23.154-4.532-23.154-4.532C98.577-2.36 94.759-2.452 86.619 0zM138.119 7.985c4.139 1.594 5.866 4.016 8.383 7.511 3.685 5.954 4.716 8.533 6.863 14.489C151.28 21.431 146.603 10.292 138.119 7.985zM114.619 7.735c-7.115 6.003-12.274 9.237-26.5 14C99.361 19.065 106.526 15.916 114.619 7.735zM137.619 13.985c2.067 7.036 5.876 10.957 11.75 14.5C143.909 24.378 140.339 20.566 137.619 13.985zM58.619 10.235c0 0-0.486 0.36-1.287 0.952 -9.145 6.479-16.294 18.86-16.463 34.548C42.864 30.127 49.049 19.143 58.619 10.235zM63.369 14.735c7.757-4.055 11.339-4.087 24.25-6.25C76.476 9.262 70.964 9.793 63.369 14.735zM84.417 18.964c-4.565 2.29-15.277 4.855-15.277 4.74 -3.757 0.834-10.27 2.281-10.27 2.281 2.522-0.319 6.849-0.825 10.418-1.591 0 0.135 8.796-1.985 11.379-3.319 2.836-1.338 1.875-0.813 4.703-2.59C85.369 18.485 85.008 18.667 84.417 18.964z"
             id="SvgjsPath4047" />
          <path
             opacity="1"
             stroke-width="none"
             fill="#000000"
             d="M147.27 7.675c-4.229-3.289-10.323-4.741-15.721-4.54 -4.611-7.454-19.151-9.598-27.97-9.69 -13.304-0.138-34.324 3.653-46.11 11.28 -10.968 7.032-21.023 20.286-23.17 33.44 -1.284 7.721-0.178 15.721 1.13 23.38 0.64 3.7 0.97 7.43 1.63 10.86 1.897 10.227 6.295 16.626 9.09 18.57 -1.065-9.855 0.097-4.998-0.77-26.75 -0.403-9.331 1.305-30.714 8.49-30.06 4.883 0.345 1.014 1.191 12.7-0.271 15.347-2.722 20.366-4.152 41.79-10.659 -3.357 2.798-5.103 4.068-9.6 6.22 -0.01-0.01-0.01 0-0.01 0 -0.14 0.07-0.29 0.14-0.43 0.2 3.719-0.024 8.346-1.305 11.299-3.12 -0.407 0.762-1.632 2.147-2.539 3.3 3.844 0 10.74-3.438 14.16-5.91 -0.48 1-1.603 3.462-2.811 5.21 1.141-0.57 3.874-1.313 9.33-5.93 1.11-0.93 2.38-2.19 3.38-3.37 3.349 3.818 3.148 6.516 11.53 12.7 4.158 2.36 5.282 1.625 7.78 3.45 2.206 14.448 5.134-0.795 3.26 54.78 5.6-4.96 6.275-8.026 8.88-20.23C166.297 53.602 161.249 18.163 147.27 7.675zM160.949 70.325c-2.216 12.286-2.402 14.36-6.88 19.22 0.814-10.8 1.53-20.459 1.319-31.34 -0.444-16.061-2.58-13.048-4.1-22.72 -2.878-2.021-4.273-1.655-6.92-2.85 -0.46-0.17-0.84-0.46-1.27-0.68 -8.392-5.824-8.398-8.604-11.83-12.27 0.971-1.114 1.813-2.391 2.09-2.94 -1.509 2.264-7.977 8.239-14.11 11.63 1.059-1.676 1.864-3.305 2.44-4.78 1.735-1.212 2.92-2.358 3.92-3.35 -3.419 2.84-12.225 7.96-17.75 9.07 0.174-0.179 1.875-1.826 2.516-3.074 1.355-0.542 5.016-2.779 6.304-4.203 -6.304 4.203-13.475 6.72-15.979 7.136 3.064-1.149 7.04-4.731 9.08-6.36 1.971-1.574 2.353-2.206 4.399-4.28 -1.344 0.938-3.44 2.993-6.056 4.097 -1.547 0.653-43.89 12.498-51.254 10.574 -1.478-0.37-3.149-0.818-4.62-0.39 -11.8 5.076-7.461 37.634-7.3 47.63 0.136 8.423 0.74 9.89 0.74 9.89 -7.751-7.36-8.089-23.554-8.9-29.18 -1.028-7.456-1.923-15.371-0.55-22.77 2.24-12.64 11.912-25.407 22.26-32.06 15.469-10.04 61.594-18.533 73.04-2.83C159.954 3.495 163.94 50.271 160.949 70.325z"
             id="SvgjsPath4048" />
        </g>
        <g
           id="svga-group-glasses-single">
          <path
             opacity="0.2"
             stroke-width="none"
             fill="#ffffff"
             d="M143.62 100.1c-2.36 2.2-6.23 3.04-13.56 3.04 -9.78 0-16.18-1.09-20.41-9.51 -3.29-6.54-4.62-13.56-3.02-15.98 2.21-3.34 8.57-5.61 15.67-6.28C134.63 77.23 143.29 88.98 143.62 100.1zM72.01 71.17c-7.64 0.21-15.09 2.35-18.27 7.05 -2.18 3.21-1.69 12.55-0.22 16.94 2 5.99 5.07 7.98 16.42 7.98 9.78 0 16.18-1.09 20.41-9.51 0.42-0.84 0.81-1.69 1.17-2.54C88.29 82.95 81.16 75.43 72.01 71.17z"
             id="SvgjsPath4009" />
          <path
             opacity="0.4"
             stroke-width="none"
             fill="#ffffff"
             d="M146.48 95.17c-0.71 2.12-1.56 3.73-2.86 4.94 -0.33-11.12-8.99-22.87-21.33-28.74 9.37-0.89 19.99 0.99 23.97 6.86C148.44 81.44 147.95 90.77 146.48 95.17zM93.38 77.65c-2.79-4.23-12.22-6.73-21.37-6.47 9.16 4.25 16.28 11.77 19.52 19.92C93.94 85.36 94.77 79.76 93.38 77.65z"
             id="SvgjsPath4010" />
          <path
             opacity="1"
             stroke-width="none"
             fill="#171717"
             d="M151.79 73.61c-10.18-5.46-36.14-7.01-45.5 0.15 -0.8 0.47-4.23-0.53-6.29-0.53 -1.95 0-5.42 1.05-6.29 0.53 -9.36-7.16-35.32-5.61-45.5-0.15 -1.46 0.79-1.62 4.51-0.35 5.08 0.91 0.41 1.51 0.98 1.46 1.98C49 86.29 50.55 93.59 51.23 95.6c0.87 2.59 2.44 7.41 9.29 8.6 5.83 1.01 16.43 1.48 21.94-0.17 9.99-2.98 14.24-18.04 14.42-23.17l0.01 0.02c0.4-1.8 5.82-1.8 6.23 0l0.01-0.02c0.17 5.13 4.43 20.19 14.42 23.17 5.51 1.65 16.11 1.18 21.94 0.17 6.85-1.19 8.42-6.01 9.29-8.6 0.68-2.02 2.23-9.31 1.92-14.93 -0.05-1 0.56-1.57 1.46-1.98C153.41 78.12 153.25 74.4 151.79 73.61zM81.41 101.36c-5.06 1.51-14.32 1.61-19.71 0.67 -4.54-0.79-6.44-3.26-7.7-7.03 -1.48-4.4-1.87-13.51 0.16-16.5 6.76-9.98 33.87-8.05 38.8-0.58C95.16 81.27 90.89 98.53 81.41 101.36zM146 95.01c-1.26 3.77-3.17 6.24-7.7 7.03 -5.39 0.94-14.65 0.84-19.71-0.67 -9.48-2.83-13.75-20.09-11.55-23.44 4.93-7.47 32.04-9.4 38.8 0.58C147.87 81.49 147.48 90.61 146 95.01z"
             id="SvgjsPath4011" />
          <path
             opacity="1"
             stroke-width="none"
             fill="#232323"
             d="M118.58 101.32c2.79 0.83 6.86 1.24 10.85 1.27 -12.54 1.22-15.39-3.4-17.12-5.16 -3.52-3.59-5.69-8.95-5.85-16.65C106.49 86.86 110.76 98.99 118.58 101.32zM93.69 73.72c-9.36-7.16-35.32-5.62-45.5-0.15C71.43 67.05 84.93 70.42 93.69 73.72zM61.68 102c-4.54-0.79-6.44-3.26-7.7-7.03 -1.32-3.93-1.77-11.62-0.4-15.35 -1.83 4.22-1.12 12.39 0.26 16.5 1.6 4.8 4.54 7.18 17.34 6.46C67.71 102.65 64.25 102.44 61.68 102zM152.97 76.3c-0.04-1.13-0.45-2.32-1.2-2.73 -9.98-5.36-35.14-6.94-44.93-0.25C120 68.05 138.97 67.31 152.97 76.3z"
             id="SvgjsPath4012" />
        </g>
      </g>
    </g>
    <rect
       style="display:none;;opacity:1"
       opacity="0.5"
       fill="#efefef"
       y="185"
       x="0"
       height="15"
       width="200"
       id="SvgjsRect1036" />
    <text
       y="185"
       x="100"
       fill="#000000"
       font-weight="400"
       text-anchor="middle"
       font-size="0.84em"
       style="font-size:0.84em;font-family:&quot;Roboto&quot;, &quot;Helvetica Neue&quot;, Helvetica, Arial, sans-serif;text-anchor:middle;font-weight:400;display:none;;opacity:1"
       font-family="&quot;Roboto&quot;, &quot;Helvetica Neue&quot;, Helvetica, Arial, sans-serif"
       id="SvgjsText1037">
      <tspan
         style="font-size:0.84em;font-family:&quot;Roboto&quot;, &quot;Helvetica Neue&quot;, Helvetica, Arial, sans-serif;text-anchor:middle;font-weight:400;;opacity:1"
         x="100"
         dy="1.2em"
         id="SvgjsTspan1038">Created on AvatarMaker.com</tspan>
    </text>
  </g>
  <defs
     id="SvgjsDefs1001">
    <radialGradient
       class="svga-on-canvas-facehighlight-gradient-single-0"
       gradientUnits="userSpaceOnUse"
       r="41"
       cy="114"
       cx="100"
       id="SvgjsRadialGradient2886">
      <stop
         offset="0"
         stop-color="#eaeaea"
         stop-opacity="0.5"
         id="SvgjsStop2887" />
      <stop
         offset="0.9"
         stop-color="#d1d1d1"
         stop-opacity="0"
         id="SvgjsStop2888" />
    </radialGradient>
    <radialGradient
       class="svga-on-canvas-facehighlight-gradient-single-1"
       gradientUnits="userSpaceOnUse"
       r="37"
       cy="54"
       cx="100"
       id="SvgjsRadialGradient2890">
      <stop
         offset="0"
         stop-color="#eaeaea"
         stop-opacity="0.5"
         id="SvgjsStop2891" />
      <stop
         offset="0.9"
         stop-color="#d1d1d1"
         stop-opacity="0"
         id="SvgjsStop2892" />
    </radialGradient>
    <linearGradient
       class="svga-on-canvas-chinshadow-gradient-single-0"
       gradientUnits="userSpaceOnUse"
       y2="128"
       x2="100"
       y1="171"
       x1="100"
       id="SvgjsLinearGradient3149">
      <stop
         offset="0"
         stop-color="#b9b9b9"
         stop-opacity="0.8"
         id="SvgjsStop3150" />
      <stop
         offset="0.7"
         stop-color="#8c8c8c"
         stop-opacity="1"
         id="SvgjsStop3151" />
    </linearGradient>
    <linearGradient
       class="svga-on-canvas-mouth-gradient-single-0"
       gradientUnits="userSpaceOnUse"
       y2="139"
       x2="100"
       y1="142"
       x1="100"
       id="SvgjsLinearGradient3182">
      <stop
         offset="0.1"
         stop-color="#c4c4c4"
         stop-opacity="1"
         id="SvgjsStop3183" />
      <stop
         offset="1"
         stop-color="#b9b9b9"
         stop-opacity="1"
         id="SvgjsStop3184" />
    </linearGradient>
    <radialGradient
       class="svga-on-canvas-eyesback-gradient-left-0"
       gradientUnits="userSpaceOnUse"
       gradientTransform="matrix(-1.0592 4.000000e-004 -4.000000e-004 0.9318 206.5112 5.1767)"
       r="12.84"
       cy="82.93"
       cx="125.379"
       id="SvgjsRadialGradient3774">
      <stop
         offset="0"
         stop-color="#ffffff"
         stop-opacity="1"
         id="SvgjsStop3775" />
      <stop
         offset="0.544"
         stop-color="#fefefe"
         stop-opacity="1"
         id="SvgjsStop3776" />
      <stop
         offset="0.74"
         stop-color="#f8f8f8"
         stop-opacity="1"
         id="SvgjsStop3777" />
      <stop
         offset="0.879"
         stop-color="#eeeeee"
         stop-opacity="1"
         id="SvgjsStop3778" />
      <stop
         offset="0.992"
         stop-color="#e1e1e1"
         stop-opacity="1"
         id="SvgjsStop3779" />
      <stop
         offset="1"
         stop-color="#e0e0e0"
         stop-opacity="1"
         id="SvgjsStop3780" />
    </radialGradient>
    <radialGradient
       class="svga-on-canvas-eyesback-gradient-right-0"
       gradientUnits="userSpaceOnUse"
       gradientTransform="matrix(1.0592 4.000000e-004 4.000000e-004 0.9318 -6.5112 5.1767)"
       r="12.841"
       cy="82.93"
       cx="125.001"
       id="SvgjsRadialGradient3782">
      <stop
         offset="0"
         stop-color="#ffffff"
         stop-opacity="1"
         id="SvgjsStop3783" />
      <stop
         offset="0.544"
         stop-color="#fefefe"
         stop-opacity="1"
         id="SvgjsStop3784" />
      <stop
         offset="0.74"
         stop-color="#f8f8f8"
         stop-opacity="1"
         id="SvgjsStop3785" />
      <stop
         offset="0.879"
         stop-color="#eeeeee"
         stop-opacity="1"
         id="SvgjsStop3786" />
      <stop
         offset="0.992"
         stop-color="#e1e1e1"
         stop-opacity="1"
         id="SvgjsStop3787" />
      <stop
         offset="1"
         stop-color="#e0e0e0"
         stop-opacity="1"
         id="SvgjsStop3788" />
    </radialGradient>
    <radialGradient
       class="svga-on-canvas-eyesfront-gradient-left-0"
       gradientUnits="userSpaceOnUse"
       gradientTransform="matrix(-1.0592 4.000000e-004 -4.000000e-004 0.9318 206.5112 5.1767)"
       r="12.84"
       cy="82.93"
       cx="125.379"
       id="SvgjsRadialGradient3790">
      <stop
         offset="0"
         stop-color="#ffffff"
         stop-opacity="1"
         id="SvgjsStop3791" />
      <stop
         offset="0.544"
         stop-color="#fefefe"
         stop-opacity="1"
         id="SvgjsStop3792" />
      <stop
         offset="0.74"
         stop-color="#f8f8f8"
         stop-opacity="1"
         id="SvgjsStop3793" />
      <stop
         offset="0.879"
         stop-color="#eeeeee"
         stop-opacity="1"
         id="SvgjsStop3794" />
      <stop
         offset="0.992"
         stop-color="#e1e1e1"
         stop-opacity="1"
         id="SvgjsStop3795" />
      <stop
         offset="1"
         stop-color="#e0e0e0"
         stop-opacity="1"
         id="SvgjsStop3796" />
    </radialGradient>
    <radialGradient
       class="svga-on-canvas-eyesfront-gradient-left-3"
       gradientUnits="userSpaceOnUse"
       gradientTransform="matrix(0.9998 0.0183 0.0166 -0.7038 -47.7588 136.6255)"
       r="17.898"
       fy="77.197"
       fx="133.802"
       cy="81.096"
       cx="123.218"
       id="SvgjsRadialGradient3800">
      <stop
         offset="0"
         stop-color="#b9b9b9"
         stop-opacity="1"
         id="SvgjsStop3801" />
      <stop
         offset="0.7"
         stop-color="#b9b9b9"
         stop-opacity="0.3"
         id="SvgjsStop3802" />
      <stop
         offset="1"
         stop-color="#d1d1d1"
         stop-opacity="0"
         id="SvgjsStop3803" />
    </radialGradient>
    <radialGradient
       class="svga-on-canvas-eyesfront-gradient-left-4"
       gradientUnits="userSpaceOnUse"
       gradientTransform="matrix(1.0971 -0.0499 0.0576 0.9543 -20.1632 27.912)"
       r="23.208"
       cy="81.496"
       cx="79.496"
       id="SvgjsRadialGradient3805">
      <stop
         offset="0.9"
         stop-color="#000000"
         stop-opacity="0"
         id="SvgjsStop3806" />
      <stop
         offset="1"
         stop-color="#000000"
         stop-opacity="0.2"
         id="SvgjsStop3807" />
    </radialGradient>
    <radialGradient
       class="svga-on-canvas-eyesfront-gradient-right-0"
       gradientUnits="userSpaceOnUse"
       gradientTransform="matrix(1.0592 4.000000e-004 4.000000e-004 0.9318 -6.5112 5.1767)"
       r="12.841"
       cy="82.93"
       cx="125.001"
       id="SvgjsRadialGradient3811">
      <stop
         offset="0"
         stop-color="#ffffff"
         stop-opacity="1"
         id="SvgjsStop3812" />
      <stop
         offset="0.544"
         stop-color="#fefefe"
         stop-opacity="1"
         id="SvgjsStop3813" />
      <stop
         offset="0.74"
         stop-color="#f8f8f8"
         stop-opacity="1"
         id="SvgjsStop3814" />
      <stop
         offset="0.879"
         stop-color="#eeeeee"
         stop-opacity="1"
         id="SvgjsStop3815" />
      <stop
         offset="0.992"
         stop-color="#e1e1e1"
         stop-opacity="1"
         id="SvgjsStop3816" />
      <stop
         offset="1"
         stop-color="#e0e0e0"
         stop-opacity="1"
         id="SvgjsStop3817" />
    </radialGradient>
    <radialGradient
       class="svga-on-canvas-eyesfront-gradient-right-3"
       gradientUnits="userSpaceOnUse"
       gradientTransform="matrix(-0.9998 0.0183 -0.0166 -0.7038 246.9601 136.6328)"
       r="17.898"
       fy="77.197"
       fx="133.402"
       cy="81.096"
       cx="122.818"
       id="SvgjsRadialGradient3821">
      <stop
         offset="0"
         stop-color="#b9b9b9"
         stop-opacity="1"
         id="SvgjsStop3822" />
      <stop
         offset="0.7"
         stop-color="#b9b9b9"
         stop-opacity="0.3"
         id="SvgjsStop3823" />
      <stop
         offset="1"
         stop-color="#d1d1d1"
         stop-opacity="0"
         id="SvgjsStop3824" />
    </radialGradient>
    <radialGradient
       class="svga-on-canvas-eyesfront-gradient-right-4"
       gradientUnits="userSpaceOnUse"
       gradientTransform="matrix(-1.0971 -0.0499 -0.0576 0.9543 220.163 27.9157)"
       r="23.208"
       cy="81.511"
       cx="79.859"
       id="SvgjsRadialGradient3826">
      <stop
         offset="0.9"
         stop-color="#000000"
         stop-opacity="0"
         id="SvgjsStop3827" />
      <stop
         offset="1"
         stop-color="#000000"
         stop-opacity="0.2"
         id="SvgjsStop3828" />
    </radialGradient>
    <radialGradient
       class="svga-on-canvas-eyesiris-gradient-left-1"
       gradientUnits="userSpaceOnUse"
       gradientTransform="matrix(0.096 -0.0248 0.0245 0.0961 141.2814 119.9893)"
       r="59.751"
       cy="-521.042"
       cx="-568.659"
       id="SvgjsRadialGradient3911">
      <stop
         offset="0"
         stop-color="#ffffff"
         stop-opacity="1"
         id="SvgjsStop3912" />
      <stop
         offset="1"
         stop-color="#ffffff"
         stop-opacity="0"
         id="SvgjsStop3913" />
    </radialGradient>
    <radialGradient
       class="svga-on-canvas-eyesiris-gradient-left-2"
       gradientUnits="userSpaceOnUse"
       gradientTransform="matrix(0.0991 8.856319e-004 -0.0011 0.0991 131.1134 135.9855)"
       r="59.745"
       cy="-519.099"
       cx="-582.838"
       id="SvgjsRadialGradient3915">
      <stop
         offset="0"
         stop-color="#ffffff"
         stop-opacity="1"
         id="SvgjsStop3916" />
      <stop
         offset="1"
         stop-color="#ffffff"
         stop-opacity="0"
         id="SvgjsStop3917" />
    </radialGradient>
    <linearGradient
       class="svga-on-canvas-eyesiris-gradient-left-5"
       gradientUnits="userSpaceOnUse"
       gradientTransform="matrix(1 0 0 1 -52 0)"
       y2="87.152"
       x2="123.606"
       y1="88.268"
       x1="122.67"
       id="SvgjsLinearGradient3921">
      <stop
         offset="0"
         stop-color="#ffffff"
         stop-opacity="1"
         id="SvgjsStop3922" />
      <stop
         offset="1"
         stop-color="#ffffff"
         stop-opacity="0"
         id="SvgjsStop3923" />
    </linearGradient>
    <linearGradient
       class="svga-on-canvas-eyesiris-gradient-left-6"
       gradientUnits="userSpaceOnUse"
       gradientTransform="matrix(1 0 0 1 -52 0)"
       y2="83.189"
       x2="126.463"
       y1="82.296"
       x1="127.212"
       id="SvgjsLinearGradient3925">
      <stop
         offset="0"
         stop-color="#ffffff"
         stop-opacity="1"
         id="SvgjsStop3926" />
      <stop
         offset="1"
         stop-color="#ffffff"
         stop-opacity="0"
         id="SvgjsStop3927" />
    </linearGradient>
    <linearGradient
       class="svga-on-canvas-eyesiris-gradient-left-7"
       gradientUnits="userSpaceOnUse"
       gradientTransform="matrix(1 0 0 1 -52 0)"
       y2="81.879"
       x2="127.91"
       y1="79.822"
       x1="129.636"
       id="SvgjsLinearGradient3929">
      <stop
         offset="0"
         stop-color="#ffffff"
         stop-opacity="1"
         id="SvgjsStop3930" />
      <stop
         offset="1"
         stop-color="#ffffff"
         stop-opacity="0"
         id="SvgjsStop3931" />
    </linearGradient>
    <radialGradient
       class="svga-on-canvas-eyesiris-gradient-right-1"
       gradientUnits="userSpaceOnUse"
       gradientTransform="matrix(0.096 -0.0248 0.0245 0.0961 193.2804 119.9894)"
       r="59.752"
       cy="-521.042"
       cx="-568.654"
       id="SvgjsRadialGradient3934">
      <stop
         offset="0"
         stop-color="#ffffff"
         stop-opacity="1"
         id="SvgjsStop3935" />
      <stop
         offset="1"
         stop-color="#ffffff"
         stop-opacity="0"
         id="SvgjsStop3936" />
    </radialGradient>
    <radialGradient
       class="svga-on-canvas-eyesiris-gradient-right-2"
       gradientUnits="userSpaceOnUse"
       gradientTransform="matrix(0.0991 8.856319e-004 -0.0011 0.0991 183.1126 135.9856)"
       r="59.747"
       cy="-519.102"
       cx="-582.833"
       id="SvgjsRadialGradient3938">
      <stop
         offset="0"
         stop-color="#ffffff"
         stop-opacity="1"
         id="SvgjsStop3939" />
      <stop
         offset="1"
         stop-color="#ffffff"
         stop-opacity="0"
         id="SvgjsStop3940" />
    </radialGradient>
    <linearGradient
       class="svga-on-canvas-eyesiris-gradient-right-5"
       gradientUnits="userSpaceOnUse"
       y2="87.152"
       x2="123.606"
       y1="88.268"
       x1="122.67"
       id="SvgjsLinearGradient3944">
      <stop
         offset="0"
         stop-color="#ffffff"
         stop-opacity="1"
         id="SvgjsStop3945" />
      <stop
         offset="1"
         stop-color="#ffffff"
         stop-opacity="0"
         id="SvgjsStop3946" />
    </linearGradient>
    <linearGradient
       class="svga-on-canvas-eyesiris-gradient-right-6"
       gradientUnits="userSpaceOnUse"
       y2="83.189"
       x2="126.463"
       y1="82.296"
       x1="127.212"
       id="SvgjsLinearGradient3948">
      <stop
         offset="0"
         stop-color="#ffffff"
         stop-opacity="1"
         id="SvgjsStop3949" />
      <stop
         offset="1"
         stop-color="#ffffff"
         stop-opacity="0"
         id="SvgjsStop3950" />
    </linearGradient>
    <linearGradient
       class="svga-on-canvas-eyesiris-gradient-right-7"
       gradientUnits="userSpaceOnUse"
       y2="81.879"
       x2="127.91"
       y1="79.822"
       x1="129.636"
       id="SvgjsLinearGradient3952">
      <stop
         offset="0"
         stop-color="#ffffff"
         stop-opacity="1"
         id="SvgjsStop3953" />
      <stop
         offset="1"
         stop-color="#ffffff"
         stop-opacity="0"
         id="SvgjsStop3954" />
    </linearGradient>
    <linearGradient
       class="svga-on-canvas-chinshadow-gradient-single-0"
       gradientUnits="userSpaceOnUse"
       y2="128"
       x2="100"
       y1="171"
       x1="100"
       id="SvgjsLinearGradient3149-884">
      <stop
         offset="0"
         stop-color="#b9b9b9"
         stop-opacity="0.8"
         id="stop4076" />
      <stop
         offset="0.7"
         stop-color="#8c8c8c"
         stop-opacity="1"
         id="stop4078" />
    </linearGradient>
    <linearGradient
       class="svga-on-canvas-mouth-gradient-single-0"
       gradientUnits="userSpaceOnUse"
       y2="139"
       x2="100"
       y1="142"
       x1="100"
       id="SvgjsLinearGradient3182-801">
      <stop
         offset="0.1"
         stop-color="#c4c4c4"
         stop-opacity="1"
         id="stop4081" />
      <stop
         offset="1"
         stop-color="#b9b9b9"
         stop-opacity="1"
         id="stop4083" />
    </linearGradient>
    <radialGradient
       class="svga-on-canvas-eyesback-gradient-left-0"
       gradientUnits="userSpaceOnUse"
       gradientTransform="matrix(-1.0592 4.000000e-004 -4.000000e-004 0.9318 206.5112 5.1767)"
       r="12.84"
       cy="82.93"
       cx="125.379"
       id="SvgjsRadialGradient3774-311">
      <stop
         offset="0"
         stop-color="#ffffff"
         stop-opacity="1"
         id="stop4086" />
      <stop
         offset="0.544"
         stop-color="#fefefe"
         stop-opacity="1"
         id="stop4088" />
      <stop
         offset="0.74"
         stop-color="#f8f8f8"
         stop-opacity="1"
         id="stop4090" />
      <stop
         offset="0.879"
         stop-color="#eeeeee"
         stop-opacity="1"
         id="stop4092" />
      <stop
         offset="0.992"
         stop-color="#e1e1e1"
         stop-opacity="1"
         id="stop4094" />
      <stop
         offset="1"
         stop-color="#e0e0e0"
         stop-opacity="1"
         id="stop4096" />
    </radialGradient>
    <radialGradient
       class="svga-on-canvas-eyesfront-gradient-left-3"
       gradientUnits="userSpaceOnUse"
       gradientTransform="matrix(0.9998 0.0183 0.0166 -0.7038 -47.7588 136.6255)"
       r="17.898"
       fy="77.197"
       fx="133.802"
       cy="81.096"
       cx="123.218"
       id="SvgjsRadialGradient3800-966">
      <stop
         offset="0"
         stop-color="#b9b9b9"
         stop-opacity="1"
         id="stop4099" />
      <stop
         offset="0.7"
         stop-color="#b9b9b9"
         stop-opacity="0.3"
         id="stop4101" />
      <stop
         offset="1"
         stop-color="#d1d1d1"
         stop-opacity="0"
         id="stop4103" />
    </radialGradient>
    <radialGradient
       class="svga-on-canvas-eyesfront-gradient-left-4"
       gradientUnits="userSpaceOnUse"
       gradientTransform="matrix(1.0971 -0.0499 0.0576 0.9543 -20.1632 27.912)"
       r="23.208"
       cy="81.496"
       cx="79.496"
       id="SvgjsRadialGradient3805-175">
      <stop
         offset="0.9"
         stop-color="#000000"
         stop-opacity="0"
         id="stop4106" />
      <stop
         offset="1"
         stop-color="#000000"
         stop-opacity="0.2"
         id="stop4108" />
    </radialGradient>
    <radialGradient
       class="svga-on-canvas-eyesback-gradient-right-0"
       gradientUnits="userSpaceOnUse"
       gradientTransform="matrix(1.0592 4.000000e-004 4.000000e-004 0.9318 -6.5112 5.1767)"
       r="12.841"
       cy="82.93"
       cx="125.001"
       id="SvgjsRadialGradient3782-113">
      <stop
         offset="0"
         stop-color="#ffffff"
         stop-opacity="1"
         id="stop4111" />
      <stop
         offset="0.544"
         stop-color="#fefefe"
         stop-opacity="1"
         id="stop4113" />
      <stop
         offset="0.74"
         stop-color="#f8f8f8"
         stop-opacity="1"
         id="stop4115" />
      <stop
         offset="0.879"
         stop-color="#eeeeee"
         stop-opacity="1"
         id="stop4117" />
      <stop
         offset="0.992"
         stop-color="#e1e1e1"
         stop-opacity="1"
         id="stop4119" />
      <stop
         offset="1"
         stop-color="#e0e0e0"
         stop-opacity="1"
         id="stop4121" />
    </radialGradient>
    <radialGradient
       class="svga-on-canvas-eyesfront-gradient-right-3"
       gradientUnits="userSpaceOnUse"
       gradientTransform="matrix(-0.9998 0.0183 -0.0166 -0.7038 246.9601 136.6328)"
       r="17.898"
       fy="77.197"
       fx="133.402"
       cy="81.096"
       cx="122.818"
       id="SvgjsRadialGradient3821-930">
      <stop
         offset="0"
         stop-color="#b9b9b9"
         stop-opacity="1"
         id="stop4124" />
      <stop
         offset="0.7"
         stop-color="#b9b9b9"
         stop-opacity="0.3"
         id="stop4126" />
      <stop
         offset="1"
         stop-color="#d1d1d1"
         stop-opacity="0"
         id="stop4128" />
    </radialGradient>
    <radialGradient
       class="svga-on-canvas-eyesfront-gradient-right-4"
       gradientUnits="userSpaceOnUse"
       gradientTransform="matrix(-1.0971 -0.0499 -0.0576 0.9543 220.163 27.9157)"
       r="23.208"
       cy="81.511"
       cx="79.859"
       id="SvgjsRadialGradient3826-762">
      <stop
         offset="0.9"
         stop-color="#000000"
         stop-opacity="0"
         id="stop4131" />
      <stop
         offset="1"
         stop-color="#000000"
         stop-opacity="0.2"
         id="stop4133" />
    </radialGradient>
    <radialGradient
       class="svga-on-canvas-facehighlight-gradient-single-0"
       gradientUnits="userSpaceOnUse"
       r="41"
       cy="114"
       cx="100"
       id="SvgjsRadialGradient2886-145">
      <stop
         offset="0"
         stop-color="#eaeaea"
         stop-opacity="0.5"
         id="stop4136" />
      <stop
         offset="0.9"
         stop-color="#d1d1d1"
         stop-opacity="0"
         id="stop4138" />
    </radialGradient>
    <radialGradient
       class="svga-on-canvas-facehighlight-gradient-single-1"
       gradientUnits="userSpaceOnUse"
       r="37"
       cy="54"
       cx="100"
       id="SvgjsRadialGradient2890-451">
      <stop
         offset="0"
         stop-color="#eaeaea"
         stop-opacity="0.5"
         id="stop4141" />
      <stop
         offset="0.9"
         stop-color="#d1d1d1"
         stop-opacity="0"
         id="stop4143" />
    </radialGradient>
  </defs>
</svg>
